<svg width="119" height="71" viewBox="0 0 119 71" fill="none" xmlns="http://www.w3.org/2000/svg">
<path d="M10.626 30.385C8.44433 30.385 6.57067 30.0128 5.005 29.2685C3.465 28.5242 2.06617 27.4077 0.8085 25.919L4.2735 22.454C5.06917 23.5063 5.99317 24.3277 7.0455 24.918C8.09783 25.4827 9.38117 25.765 10.8955 25.765C12.2558 25.765 13.3338 25.4955 14.1295 24.9565C14.9508 24.4175 15.3615 23.6732 15.3615 22.7235C15.3615 21.9022 15.1305 21.2348 14.6685 20.7215C14.2065 20.2082 13.5905 19.7718 12.8205 19.4125C12.0762 19.0532 11.242 18.7323 10.318 18.45C9.41967 18.142 8.5085 17.7955 7.5845 17.4105C6.68617 17.0255 5.852 16.5507 5.082 15.986C4.33767 15.3957 3.7345 14.6513 3.2725 13.753C2.8105 12.829 2.5795 11.674 2.5795 10.288C2.5795 8.64533 2.97733 7.2465 3.773 6.0915C4.56867 4.9365 5.6595 4.051 7.0455 3.435C8.4315 2.819 9.99717 2.511 11.7425 2.511C13.5905 2.511 15.2588 2.8575 16.7475 3.5505C18.2362 4.2435 19.4553 5.14183 20.405 6.2455L16.94 9.7105C16.1443 8.83783 15.323 8.19617 14.476 7.7855C13.6547 7.37483 12.7178 7.1695 11.6655 7.1695C10.4592 7.1695 9.5095 7.4005 8.8165 7.8625C8.1235 8.3245 7.777 8.99183 7.777 9.8645C7.777 10.6088 8.008 11.212 8.47 11.674C8.932 12.136 9.53517 12.5338 10.2795 12.8675C11.0495 13.2012 11.8837 13.522 12.782 13.83C13.706 14.138 14.6172 14.4845 15.5155 14.8695C16.4395 15.2545 17.2737 15.755 18.018 16.371C18.788 16.987 19.404 17.7827 19.866 18.758C20.328 19.7077 20.559 20.8883 20.559 22.3C20.559 24.8153 19.6735 26.7917 17.9025 28.229C16.1315 29.6663 13.706 30.385 10.626 30.385ZM23.1514 30V2.9345H28.3874V30H23.1514ZM32.402 30V2.9345H36.098L47.0705 20.4905H44.953L55.887 2.9345H59.583V30H54.3855V11.905L55.3865 12.213L47.7635 24.456H44.2215L36.5985 12.213L37.638 11.905V30H32.402ZM76.2384 30.4235C74.2621 30.4235 72.4141 30.0642 70.6944 29.3455C69.0004 28.6268 67.5118 27.6387 66.2284 26.381C64.9708 25.0977 63.9826 23.609 63.2639 21.915C62.5453 20.1953 62.1859 18.3602 62.1859 16.4095C62.1859 14.4588 62.5324 12.6493 63.2254 10.981C63.9441 9.287 64.9323 7.81117 66.1899 6.5535C67.4733 5.27017 68.9619 4.282 70.6559 3.589C72.3499 2.87033 74.1851 2.511 76.1614 2.511C78.1634 2.511 80.0114 2.87033 81.7054 3.589C83.3994 4.282 84.8753 5.27017 86.1329 6.5535C87.4163 7.81117 88.4173 9.287 89.1359 10.981C89.8546 12.675 90.2139 14.4973 90.2139 16.448C90.2139 18.3987 89.8546 20.221 89.1359 21.915C88.4173 23.609 87.4163 25.0977 86.1329 26.381C84.8753 27.6387 83.3994 28.6268 81.7054 29.3455C80.0371 30.0642 78.2148 30.4235 76.2384 30.4235ZM76.1614 25.534C77.9068 25.534 79.4211 25.149 80.7044 24.379C81.9878 23.609 82.9888 22.5438 83.7074 21.1835C84.4518 19.8232 84.8239 18.2318 84.8239 16.4095C84.8239 15.0748 84.6186 13.8557 84.2079 12.752C83.7973 11.6483 83.2069 10.6987 82.4369 9.903C81.6669 9.08167 80.7558 8.45283 79.7034 8.0165C78.6511 7.58017 77.4704 7.362 76.1614 7.362C74.4674 7.362 72.9659 7.747 71.6569 8.517C70.3736 9.26133 69.3598 10.3137 68.6154 11.674C67.8968 13.0343 67.5374 14.6128 67.5374 16.4095C67.5374 17.7698 67.7428 19.0147 68.1534 20.144C68.5898 21.2733 69.1801 22.2358 69.9244 23.0315C70.6944 23.8272 71.6056 24.4432 72.6579 24.8795C73.7359 25.3158 74.9038 25.534 76.1614 25.534ZM92.8244 30V2.9345H96.4819L98.0604 8.1705V30H92.8244ZM111.535 30L95.4809 9.21L96.4819 2.9345L112.536 23.7245L111.535 30ZM111.535 30L110.034 24.918V2.9345H115.308V30H111.535Z" fill="white"/>
<path d="M8.256 54.888V49.8H16.08C17.68 49.8 18.912 49.4 19.776 48.6C20.672 47.768 21.12 46.632 21.12 45.192C21.12 43.88 20.672 42.792 19.776 41.928C18.912 41.032 17.68 40.584 16.08 40.584H8.256V35.256H16.656C18.832 35.256 20.736 35.688 22.368 36.552C24.032 37.384 25.312 38.536 26.208 40.008C27.136 41.48 27.6 43.176 27.6 45.096C27.6 47.08 27.136 48.808 26.208 50.28C25.312 51.72 24.032 52.856 22.368 53.688C20.704 54.488 18.768 54.888 16.56 54.888H8.256ZM3.456 69V35.256H9.984V69H3.456ZM21.888 69L10.752 54.408L16.752 52.536L29.808 69H21.888ZM47.0936 69.528C44.6296 69.528 42.3256 69.08 40.1816 68.184C38.0696 67.288 36.2136 66.056 34.6136 64.488C33.0456 62.888 31.8136 61.032 30.9176 58.92C30.0216 56.776 29.5736 54.488 29.5736 52.056C29.5736 49.624 30.0056 47.368 30.8696 45.288C31.7656 43.176 32.9976 41.336 34.5656 39.768C36.1656 38.168 38.0216 36.936 40.1336 36.072C42.2456 35.176 44.5336 34.728 46.9976 34.728C49.4936 34.728 51.7976 35.176 53.9096 36.072C56.0216 36.936 57.8616 38.168 59.4296 39.768C61.0296 41.336 62.2776 43.176 63.1736 45.288C64.0696 47.4 64.5176 49.672 64.5176 52.104C64.5176 54.536 64.0696 56.808 63.1736 58.92C62.2776 61.032 61.0296 62.888 59.4296 64.488C57.8616 66.056 56.0216 67.288 53.9096 68.184C51.8296 69.08 49.5576 69.528 47.0936 69.528ZM46.9976 63.432C49.1736 63.432 51.0616 62.952 52.6616 61.992C54.2616 61.032 55.5096 59.704 56.4056 58.008C57.3336 56.312 57.7976 54.328 57.7976 52.056C57.7976 50.392 57.5416 48.872 57.0296 47.496C56.5176 46.12 55.7816 44.936 54.8216 43.944C53.8616 42.92 52.7256 42.136 51.4136 41.592C50.1016 41.048 48.6296 40.776 46.9976 40.776C44.8856 40.776 43.0136 41.256 41.3816 42.216C39.7816 43.144 38.5176 44.456 37.5896 46.152C36.6936 47.848 36.2456 49.816 36.2456 52.056C36.2456 53.752 36.5016 55.304 37.0136 56.712C37.5576 58.12 38.2936 59.32 39.2216 60.312C40.1816 61.304 41.3176 62.072 42.6296 62.616C43.9736 63.16 45.4296 63.432 46.9976 63.432ZM76.7205 69.48C74.0005 69.48 71.6645 69.016 69.7125 68.088C67.7925 67.16 66.0485 65.768 64.4805 63.912L68.8005 59.592C69.7925 60.904 70.9445 61.928 72.2565 62.664C73.5685 63.368 75.1685 63.72 77.0565 63.72C78.7525 63.72 80.0965 63.384 81.0885 62.712C82.1125 62.04 82.6245 61.112 82.6245 59.928C82.6245 58.904 82.3365 58.072 81.7605 57.432C81.1845 56.792 80.4165 56.248 79.4565 55.8C78.5285 55.352 77.4885 54.952 76.3365 54.6C75.2165 54.216 74.0805 53.784 72.9285 53.304C71.8085 52.824 70.7685 52.232 69.8085 51.528C68.8805 50.792 68.1285 49.864 67.5525 48.744C66.9765 47.592 66.6885 46.152 66.6885 44.424C66.6885 42.376 67.1845 40.632 68.1765 39.192C69.1685 37.752 70.5285 36.648 72.2565 35.88C73.9845 35.112 75.9365 34.728 78.1125 34.728C80.4165 34.728 82.4965 35.16 84.3525 36.024C86.2085 36.888 87.7285 38.008 88.9125 39.384L84.5925 43.704C83.6005 42.616 82.5765 41.816 81.5205 41.304C80.4965 40.792 79.3285 40.536 78.0165 40.536C76.5125 40.536 75.3285 40.824 74.4645 41.4C73.6005 41.976 73.1685 42.808 73.1685 43.896C73.1685 44.824 73.4565 45.576 74.0325 46.152C74.6085 46.728 75.3605 47.224 76.2885 47.64C77.2485 48.056 78.2885 48.456 79.4085 48.84C80.5605 49.224 81.6965 49.656 82.8165 50.136C83.9685 50.616 85.0085 51.24 85.9365 52.008C86.8965 52.776 87.6645 53.768 88.2405 54.984C88.8165 56.168 89.1045 57.64 89.1045 59.4C89.1045 62.536 88.0005 65 85.7925 66.792C83.5845 68.584 80.5605 69.48 76.7205 69.48ZM92.3366 69V35.256H98.8646V69H92.3366ZM97.1366 69V63.24H115.809V69H97.1366ZM97.1366 54.552V48.984H114.129V54.552H97.1366ZM97.1366 41.016V35.256H115.569V41.016H97.1366Z" fill="#B4B4B4"/>
</svg>
